
        <svg xmlns="http://www.w3.org/2000/svg" xmlns:xlink="http://www.w3.org/1999/xlink" version="1.1" width="3433.511430564816" 
        height="3470.3440315842213" viewBox="0 0 3433.511430564816 3470.3440315842213">
			<rect fill="#111111" width="3433.511430564816" height="3470.3440315842213"/>
			<g transform="scale(23.51720157921107) translate(10, 10)">
				<defs id="SvgjsDefs3052"><linearGradient id="SvgjsLinearGradient3059" x1="0" y1="1" x2="0.9999999999999998" y2="0"><stop id="SvgjsStop3060" stop-color="#fff7ae" offset="0"></stop><stop id="SvgjsStop3061" stop-color="#fffacf" offset="0.17"></stop><stop id="SvgjsStop3062" stop-color="#9b6326" offset="0.37"></stop><stop id="SvgjsStop3063" stop-color="#fff7ae" offset="0.38"></stop><stop id="SvgjsStop3064" stop-color="#d3c175" offset="0.53"></stop><stop id="SvgjsStop3065" stop-color="#fceec4" offset="0.69"></stop><stop id="SvgjsStop3066" stop-color="#b78626" offset="0.7"></stop><stop id="SvgjsStop3067" stop-color="#fffacf" offset="0.82"></stop><stop id="SvgjsStop3068" stop-color="#9b6326" offset="1"></stop></linearGradient><radialGradient id="SvgjsRadialGradient3069"><stop id="SvgjsStop3070" stop-color="#f5ec9b" offset="0"></stop><stop id="SvgjsStop3071" stop-color="#905e26" offset="1"></stop></radialGradient><radialGradient id="SvgjsRadialGradient3072"><stop id="SvgjsStop3073" stop-color="#f5ec9b" offset="0"></stop><stop id="SvgjsStop3074" stop-color="#905e26" offset="1"></stop></radialGradient></defs><g id="SvgjsG3053" featureKey="1p4tPl-0" transform="matrix(1.317260617142084,0,0,1.317260617142084,-2.8486400270645422,-36.224664458932075)" fill="url(#SvgjsLinearGradient3059)"><path xmlns="http://www.w3.org/2000/svg" d="M53.2,53.6c0,0,33.8-2.3,43.1-26.1C96.3,27.5,110.3,53.6,53.2,53.6z M56.8,55c37.7,11.1,34.6-6.6,34.6-6.6  C81.9,56.2,56.8,55,56.8,55z M56.2,56.7c27.9,18,29.6,2.9,29.6,2.9C76.2,63.7,56.2,56.7,56.2,56.7z M55.8,58.7  c16.1,19.7,20.9,9.1,20.9,9.1C68.7,68.4,55.8,58.7,55.8,58.7z M54.9,60.9c6.2,16.6,11.7,10.7,11.7,10.7  C61.3,70.3,54.9,60.9,54.9,60.9z M46.8,53.6c0,0-33.8-2.3-43.1-26.1C3.7,27.5-10.4,53.6,46.8,53.6z M8.5,48.4c0,0-3.1,17.7,34.6,6.6  C43.1,55,18,56.2,8.5,48.4z M14.1,59.7c0,0,1.7,15.1,29.6-2.9C43.7,56.7,23.7,63.7,14.1,59.7z M23.3,67.7c0,0,4.8,10.6,20.9-9.1  C44.2,58.7,31.2,68.4,23.3,67.7z M33.3,71.6c0,0,5.5,5.9,11.7-10.7C45,60.9,38.7,70.3,33.3,71.6z"></path></g><g id="SvgjsG3054" featureKey="dYASrj-0" transform="matrix(1.3734400206651856,0,0,1.3734400206651856,13,70.7868286502259)" fill="url(#SvgjsRadialGradient3069)"><path d="M1.18 6.74 l2.26 0 l3.48 7.24 l0.42 -0.86 l-3.44 -7.12 l-3.9 0 l6.74 14 l0.34 0 l6.42 -13.26 l0.7 0 l-6.44 13.26 l0.82 0 l6.8 -14 l-2.34 0 l-6.12 12.6 z M6.94 17.22 l5.42 -11.22 l-0.84 0 l-4.58 9.52 l-3.94 -8.14 l-0.82 0 z M16.54 6.039999999999999 l0.72 0 l0 13.24 l7.66 0 l0 -2 l-5.64 0 l0 -1.92 l0.72 0 l0 1.2 l5.64 0 l0 3.44 l-9.1 0 l0 -13.96 z M17.9 6.039999999999999 l7.64 0 l0 3.42 l-4.8 0 l0 -0.72 l4.08 0 l0 -1.98 l-6.2 0 l0 5.78 l4.66 0 l0 0.72 l-5.38 0 l0 -7.22 z M17.9 13.9 l6.08 0 l0 -2 l-4.7 0 l0 -4.54 l4.84 0 l0 0.72 l-4.12 0 l0 3.1 l4.7 0 l0 3.44 l-6.08 0 l0 3.32 l5.6 0 l0 0.72 l-6.32 0 l0 -4.76 z M36.86 19.28 l-2.3 0 l-2.76 -5.14 l-1.86 0.02 l0 5.12 l-2.02 0 l0 -13.28 l-0.72 0 l0 14 l3.48 0 l0 -5.14 l0.7 0 l2.74 5.14 l3.94 0 l-2.76 -5.16 l-0.66 0.26 z M32.1 6.720000000000001 c2.9 0 4.54 1.3 4.54 3.68 c0 2.16 -1.3 3.48 -3.56 3.72 l-0.54 0.06 l2.5 4.62 l0.82 0 l-2.18 -4.06 c2.4 -0.42 3.68 -1.88 3.68 -4.34 c0 -0.82 -0.18 -1.56 -0.52 -2.22 c-0.8 -1.42 -2.44 -2.18 -4.74 -2.18 l-3.54 0 l0 12.78 l0.72 0 l0 -12.06 l2.82 0 z M31.939999999999998 13.52 c2.74 0 4.04 -0.94 4.04 -3.02 c0 -1.98 -1.36 -3.1 -3.54 -3.1 l-2.52 0 l0 2.1 l2.3 0 c1.06 0 1.6 0.3 1.6 0.9 c0 0.7 -0.66 1.04 -2 1.04 l-1.16 0 l0 -1.24 l-0.74 0 l0 1.96 l1.9 0 c1.78 0 2.72 -0.62 2.72 -1.76 c0 -0.36 -0.08 -0.64 -0.26 -0.86 c-0.34 -0.5 -1.02 -0.74 -2.06 -0.74 l-1.56 0 l0 -0.68 l1.78 0 c1.78 0 2.82 0.86 2.82 2.38 c0 1.58 -1.06 2.32 -3.32 2.32 l-2 0 l0 0.7 l2 0 z M43.7 8.6 l4.78 0 l0 -1.9 l-8.5 0 l0 0.62 l7.82 0 l0 0.72 l-8.54 0 l0 -2.06 l9.94 0 l0 3.34 l-4.78 0 l0 9.36 l-0.72 0 l0 -10.08 z M42.36 9.32 l-3.1 0 l0 -0.72 l3.82 0 l0 10.66 l2 0 l0 -9.32 l0.72 0 l0 10.06 l-3.44 0 l0 -10.68 z M50.46 6.039999999999999 l0.72 0 l0 13.24 l7.66 0 l0 -2 l-5.64 0 l0 -1.92 l0.72 0 l0 1.2 l5.64 0 l0 3.44 l-9.1 0 l0 -13.96 z M51.82 6.039999999999999 l7.64 0 l0 3.42 l-4.8 0 l0 -0.72 l4.08 0 l0 -1.98 l-6.2 0 l0 5.78 l4.66 0 l0 0.72 l-5.38 0 l0 -7.22 z M51.82 13.9 l6.08 0 l0 -2 l-4.7 0 l0 -4.54 l4.84 0 l0 0.72 l-4.12 0 l0 3.1 l4.7 0 l0 3.44 l-6.08 0 l0 3.32 l5.6 0 l0 0.72 l-6.32 0 l0 -4.76 z M67.2 9.84 l-0.76 1.18 l-2.82 -4.3 l0.76 0 l2.06 3.2 l0.42 -0.68 l-2.08 -3.24 l-2.48 0 l4.14 6.34 l4.04 -6.34 l-0.86 0 l-2.4 3.8 z M62.72 19.28 l-0.68 0 l4.04 -6.38 l-4.4 -6.88 l-0.86 0 l4.4 6.9 l-4.5 7.1 l2.38 -0.02 l8.48 -13.26 l0.72 0 l-4.74 7.44 l2.96 4.64 l0.86 0 l-2.98 -4.64 l5.22 -8.16 l-2.42 0 z M69.14 14.24 l3.26 5.04 l-2.28 0 l-2.96 -4.5 l-3.36 5.22 l0.86 0 l2.52 -3.9 l2.54 3.9 l4 0 l-4.08 -6.34 l-0.06 -0.1 z"></path></g><g id="SvgjsG3055" featureKey="dYASrj-1" transform="matrix(1.3773640371748346,0,0,1.3773640371748346,46,99.735815776951)" fill="url(#SvgjsRadialGradient3072)"><path d="M2.08 18.76 l0.88 0 l0.7 -1.68 l5.22 0.02 l1.28 2.9 l3.68 -0.02 l-6.3 -13.98 l-1.28 0 l-6.26 13.98 l3.9 0 l0.68 -1.6 l3.98 0 l-0.3 -0.68 l-4.12 0 l-0.64 1.58 l-2.38 0 l5.54 -12.6 l0.48 0 l5.56 12.6 l-2.12 0 l-1.28 -2.86 l-6.2 0 z M4.46 15.24 l2.44 -5.82 l4.1 9.32 l0.82 0 l-4.92 -10.96 l-3.6 8.08 l5.8 0 l-2.2 -4.86 l-1.52 3.66 l0.78 0 l0.74 -1.82 l1.1 2.4 l-3.54 0 z M22.9 15.440000000000001 c-1.26 0.82 -1.88 1.06 -2.74 1.06 c-0.6 0 -1.16 -0.16 -1.7 -0.48 c-1.06 -0.64 -1.78 -1.8 -1.78 -3 c0 -0.64 0.16 -1.24 0.48 -1.78 c0.62 -1.08 1.8 -1.72 3 -1.72 c0.76 0 1.44 0.22 2.02 0.64 c0.1 0.06 0.22 0.14 0.36 0.28 l0.3 0.22 l1.34 -1.58 l-0.22 -0.22 c-0.14 -0.14 -0.32 -0.26 -0.54 -0.4 c-0.94 -0.72 -2.04 -1.08 -3.26 -1.08 c-1.5 0 -2.88 0.58 -3.98 1.64 c-1.06 1.12 -1.66 2.5 -1.66 4 s0.6 2.92 1.66 3.98 s2.48 1.66 3.98 1.66 c1.08 0 2.08 -0.3 3.02 -0.9 l-0.4 -0.6 c-0.82 0.54 -1.68 0.8 -2.62 0.8 c-1.3 0 -2.54 -0.52 -3.48 -1.46 s-1.44 -2.18 -1.44 -3.48 s0.5 -2.52 1.44 -3.46 c0.94 -0.96 2.18 -1.46 3.48 -1.46 c0.98 0 1.92 0.3 2.86 0.92 l0.16 0.14 l-0.44 0.5 c-0.06 -0.02 -0.1 -0.04 -0.14 -0.08 c-0.74 -0.5 -1.56 -0.76 -2.44 -0.76 c-0.78 0 -1.48 0.18 -2.1 0.54 c-1.26 0.74 -2.1 2.2 -2.1 3.66 c0 0.7 0.2 1.4 0.58 2.06 c0.78 1.34 2.2 2.16 3.62 2.16 c0.94 0 1.7 -0.28 2.84 -1 l1.12 1.66 c-1.46 0.96 -2.6 1.36 -3.96 1.36 c-1.12 0 -2.16 -0.28 -3.12 -0.84 c-1.94 -1.12 -3.14 -3.16 -3.14 -5.4 c0 -1.12 0.28 -2.16 0.84 -3.14 c1.12 -1.92 3.18 -3.12 5.42 -3.12 c1.58 0 3.08 0.58 4.22 1.64 l0.12 0.1 l0.16 0.16 l0.5 -0.52 l-0.28 -0.28 c-1.28 -1.14 -2.96 -1.8 -4.72 -1.8 c-1.26 0 -2.42 0.3 -3.48 0.92 c-2.12 1.22 -3.5 3.56 -3.5 6.04 c0 1.22 0.32 2.38 0.96 3.46 c1.26 2.16 3.52 3.52 6.02 3.52 c1.58 0 2.9 -0.5 4.68 -1.72 l0.28 -0.18 l-1.9 -2.86 z"></path></g>
			</g>
		</svg>
	